<?xml version="1.0"?>
<svg xmlns="http://www.w3.org/2000/svg" xmlns:xlink="http://www.w3.org/1999/xlink" version="1.1" id="Capa_1" x="0px" y="0px" viewBox="0 0 299.272 299.272" style="enable-background:new 0 0 299.272 299.272;" xml:space="preserve" width="512px" height="512px"><g><g>
	<path d="M276.987,38.829c0.708-1.405,0.815-3.024,0.301-4.515c-0.526-1.481-1.62-2.692-3.047-3.358L225.449,8.432   c-10.383-3.518-20.958-6.297-31.631-8.323c-3.068-0.601-6.049,1.34-6.725,4.387c-3.894,17.172-19.091,30.022-37.455,30.022   c-18.363,0-33.562-12.85-37.456-30.022c-0.687-3.047-3.658-4.988-6.725-4.387C94.784,2.135,84.21,4.914,73.816,8.432L25.034,30.956   c-1.438,0.666-2.543,1.877-3.047,3.358c-0.515,1.492-0.418,3.111,0.311,4.515l21.184,41.811c1.244,2.499,4.119,3.732,6.801,2.928   l23.533-6.972c0,0-0.138,123.669-0.641,160.047c-0.041,2.955,2.151,5.47,5.085,5.825c13.368,1.615,27.097,10.702,36.037,20.387   c10.146,10.992,18.642,23.663,22.096,34.148c0.446,1.354,1.712,2.271,3.137,2.271h10.107h10.107c1.426,0,2.691-0.917,3.137-2.271   c3.454-10.484,11.95-23.156,22.096-34.148c8.94-9.685,22.668-18.772,36.037-20.387c2.94-0.355,5.126-2.864,5.085-5.825   c-0.504-36.374-0.649-160.047-0.649-160.047l23.544,6.972c2.681,0.804,5.535-0.43,6.8-2.928L276.987,38.829z" data-original="#000000" class="active-path" data-old_color="#D600FF" fill="#FFFFFF"/>
</g></g> </svg>
