<?xml version="1.0"?>
<svg xmlns="http://www.w3.org/2000/svg" xmlns:xlink="http://www.w3.org/1999/xlink" version="1.1" id="Layer_1" x="0px" y="0px" viewBox="0 0 512 512" style="enable-background:new 0 0 512 512;" xml:space="preserve" width="512px" height="512px" class=""><g transform="matrix(6.12323e-17 1 -1 6.12323e-17 512 0)"><g transform="translate(1 1)">
	<g>
		<path style="fill:#E2E3E5;" d="M272.067,127c-33.28,0-59.733-26.453-59.733-59.733s26.453-59.733,59.733-59.733    S331.8,33.987,331.8,67.267S305.347,127,272.067,127" data-original="#E2E3E5" class=""/>
		<path style="fill:#E2E3E5;" d="M272.067,502.467c-33.28,0-59.733-26.453-59.733-59.733S238.787,383,272.067,383    s59.733,26.453,59.733,59.733S305.347,502.467,272.067,502.467" data-original="#E2E3E5" class=""/>
		<path style="fill:#E2E3E5;" d="M272.067,314.733c-33.28,0-59.733-26.453-59.733-59.733s26.453-59.733,59.733-59.733    S331.8,221.72,331.8,255S305.347,314.733,272.067,314.733" data-original="#E2E3E5" class=""/>
	</g>
	<g>
		<path style="fill:#CCCCCC;" d="M246.467,127c-33.28,0-59.733-26.453-59.733-59.733s26.453-59.733,59.733-59.733    S306.2,33.987,306.2,67.267S279.747,127,246.467,127" data-original="#CCCCCC" class=""/>
		<path style="fill:#CCCCCC;" d="M246.467,502.467c-33.28,0-59.733-26.453-59.733-59.733S213.187,383,246.467,383    s59.733,26.453,59.733,59.733S279.747,502.467,246.467,502.467" data-original="#CCCCCC" class=""/>
		<path style="fill:#CCCCCC;" d="M246.467,314.733c-33.28,0-59.733-26.453-59.733-59.733s26.453-59.733,59.733-59.733    S306.2,221.72,306.2,255S279.747,314.733,246.467,314.733" data-original="#CCCCCC" class=""/>
	</g>
	<path style="fill:#E2E3E5;" d="M233.667,127c-25.6,0-46.933-26.453-46.933-59.733s21.333-59.733,46.933-59.733   c25.6,0,46.933,26.453,46.933,59.733S259.267,127,233.667,127" data-original="#E2E3E5" class=""/>
	<path style="fill:#FFFFFF;" d="M246.467,127c2.56,0,5.12,0,6.827-0.853c-23.04-3.413-40.96-28.16-40.96-58.88   s17.92-55.467,40.96-58.88c-1.707-0.853-4.267-0.853-6.827-0.853c-33.28,0-59.733,26.453-59.733,59.733S213.187,127,246.467,127" data-original="#FFFFFF" class=""/>
	<g>
		<path style="fill:#E2E3E5;" d="M233.667,502.467c-25.6,0-46.933-26.453-46.933-59.733S208.067,383,233.667,383    c25.6,0,46.933,26.453,46.933,59.733S259.267,502.467,233.667,502.467" data-original="#E2E3E5" class=""/>
		<path style="fill:#E2E3E5;" d="M233.667,314.733c-25.6,0-46.933-26.453-46.933-59.733s21.333-59.733,46.933-59.733    c25.6,0,46.933,26.453,46.933,59.733S259.267,314.733,233.667,314.733" data-original="#E2E3E5" class=""/>
	</g>
	<g>
		<path style="fill:#FFFFFF;" d="M246.467,314.733c2.56,0,5.12,0,6.827-0.853c-23.04-3.413-40.96-28.16-40.96-58.88    s17.92-55.467,40.96-58.88c-1.707-0.853-4.267-0.853-6.827-0.853c-33.28,0-59.733,26.453-59.733,59.733    S213.187,314.733,246.467,314.733" data-original="#FFFFFF" class=""/>
		<path style="fill:#FFFFFF;" d="M246.467,502.467c2.56,0,5.12,0,6.827-0.853c-23.04-3.413-40.96-28.16-40.96-58.88    s17.92-55.467,40.96-58.88C251.587,383,249.027,383,246.467,383c-33.28,0-59.733,26.453-59.733,59.733    S213.187,502.467,246.467,502.467" data-original="#FFFFFF" class=""/>
	</g>
	<g>
		<path style="fill:#B6B6B6;" d="M246.467,135.533c-37.547,0-68.267-30.72-68.267-68.267S208.92-1,246.467-1    s68.267,30.72,68.267,68.267S284.013,135.533,246.467,135.533z M246.467,16.067c-28.16,0-51.2,23.04-51.2,51.2    s23.04,51.2,51.2,51.2s51.2-23.04,51.2-51.2S274.627,16.067,246.467,16.067z" data-original="#B6B6B6" class=""/>
		<path style="fill:#B6B6B6;" d="M246.467,511c-37.547,0-68.267-30.72-68.267-68.267s30.72-68.267,68.267-68.267    s68.267,30.72,68.267,68.267S284.013,511,246.467,511z M246.467,391.533c-28.16,0-51.2,23.04-51.2,51.2    c0,28.16,23.04,51.2,51.2,51.2s51.2-23.04,51.2-51.2C297.667,414.573,274.627,391.533,246.467,391.533z" data-original="#B6B6B6" class=""/>
		<path style="fill:#B6B6B6;" d="M246.467,323.267c-37.547,0-68.267-30.72-68.267-68.267s30.72-68.267,68.267-68.267    s68.267,30.72,68.267,68.267S284.013,323.267,246.467,323.267z M246.467,203.8c-28.16,0-51.2,23.04-51.2,51.2    s23.04,51.2,51.2,51.2s51.2-23.04,51.2-51.2S274.627,203.8,246.467,203.8z" data-original="#B6B6B6" class=""/>
	</g>
</g></g> </svg>
