<?xml version="1.0"?>
<svg xmlns="http://www.w3.org/2000/svg" xmlns:xlink="http://www.w3.org/1999/xlink" version="1.1" id="Capa_1" x="0px" y="0px" viewBox="0 0 512 512" style="enable-background:new 0 0 512 512;" xml:space="preserve" width="512px" height="512px"><g><g>
	<g>
		<path d="M328.134,375.002l21.223-21.224c11.718-11.721,11.718-30.725-0.002-42.445L200.795,162.773    c-11.72-11.72-30.724-11.72-42.445,0l-21.224,21.222l-10.61-10.61c-17.581-17.582-46.087-17.582-63.669,0l-23.222,23.222    c-5.861,5.861-5.861,15.362,0,21.222l254.673,254.673c5.861,5.861,15.362,5.861,21.222,0l23.223-23.223    c17.582-17.582,17.582-46.089,0-63.669L328.134,375.002z" data-original="#000000" class="active-path" data-old_color="#FF1000" fill="#FFFFFF"/>
	</g>
</g><g>
	<g>
		<path d="M197.721,418.372c-2.729,4.129-5.904,8.051-9.536,11.683c-29.255,29.255-76.86,29.255-106.113,0    c-29.255-29.253-29.255-76.858,0-106.113c3.633-3.633,7.554-6.807,11.683-9.536l-42.82-42.822    c-3.911,3.127-7.75,6.355-11.31,9.914c-52.663,52.663-52.663,138.341,0,191.004s138.342,52.664,191.004,0    c3.56-3.56,6.787-7.399,9.914-11.31L197.721,418.372z" data-original="#000000" class="active-path" data-old_color="#FF1000" fill="#FFFFFF"/>
	</g>
</g><g>
	<g>
		<path d="M465.968,18.334C431.025-5.851,383.907-6.132,348.726,17.63c-29.7,20.043-47.171,53.119-46.706,88.487    c0.331,25.223-10.519,50.747-29.771,69.999l-7.82,7.859l63.669,63.668l7.726-7.765c23.263-23.264,53.884-29.119,75.461-29.927    c26.363-0.993,51.161-11.802,69.813-30.455C527.537,133.056,520.562,56.021,465.968,18.334z" data-original="#000000" class="active-path" data-old_color="#FF1000" fill="#FFFFFF"/>
	</g>
</g></g> </svg>
