<?xml version="1.0"?>
<svg xmlns="http://www.w3.org/2000/svg" xmlns:xlink="http://www.w3.org/1999/xlink" version="1.1" id="Capa_1" x="0px" y="0px" viewBox="0 0 381 381" style="enable-background:new 0 0 381 381;" xml:space="preserve" width="512px" height="512px" class=""><g><path d="M297.165,106.665C297.165,47.85,249.315,0,190.5,0S83.835,47.85,83.835,106.665c0,48.507,32.548,89.549,76.95,102.449  c-0.183,0.935-0.285,1.898-0.285,2.886v1c0,8.271,6.729,15,15,15v65.58c-17.459,6.192-30,22.865-30,42.42c0,24.813,20.187,45,45,45  s45-20.187,45-45c0-19.555-12.541-36.228-30-42.42v-65.631c7.805-0.518,14-7.016,14-14.949v-1c0-0.892-0.093-1.762-0.243-2.611  C264.148,196.805,297.165,155.52,297.165,106.665z M190.5,351c-8.271,0-15-6.729-15-15s6.729-15,15-15s15,6.729,15,15  S198.771,351,190.5,351z" data-original="#000000" class="active-path" data-old_color="#3500FF" fill="#FFFFFF"/></g> </svg>
