<?xml version="1.0" encoding="iso-8859-1"?>
<!-- Generator: Adobe Illustrator 19.0.0, SVG Export Plug-In . SVG Version: 6.00 Build 0)  -->
<svg version="1.1" id="Capa_1" xmlns="http://www.w3.org/2000/svg" xmlns:xlink="http://www.w3.org/1999/xlink" x="0px" y="0px"
	 viewBox="0 0 442.24 442.24" style="enable-background:new 0 0 442.24 442.24;" xml:space="preserve">
<g>
	<g>
		<path d="M196.16,245.12L196.16,245.12H96.72V230.4c0.177-9.365-7.272-17.1-16.637-17.277c-0.081-0.002-0.162-0.003-0.243-0.003
			H40.4c-9.367,0.042-16.925,7.67-16.883,17.037c0,0.081,0.001,0.162,0.003,0.243v14.72h-6.56C7.593,245.12,0,252.713,0,262.08
			v93.28c0,9.367,7.593,16.96,16.96,16.96h179.2c9.367,0,16.96-7.593,16.96-16.96v-93.68
			C212.903,252.47,205.373,245.117,196.16,245.12z"/>
	</g>
</g>
<g>
	<g>
		<path d="M310.8,101.12c-0.027,0-0.053,0-0.08,0h-6.48V86.88c0-9.367-7.593-16.96-16.96-16.96h-39.36
			c-9.367,0-16.96,7.593-16.96,16.96v14.24h-19.68V86.88c0-9.367-7.593-16.96-16.96-16.96h-39.36c-9.367,0-16.96,7.593-16.96,16.96
			v14.24h-6.48c-9.367,0-16.96,7.593-16.96,16.96v93.76c-0.177,9.365,7.272,17.1,16.637,17.277c0.108,0.002,0.215,0.003,0.323,0.003
			h179.2c9.367,0,16.96-7.593,16.96-16.96v-94C327.724,108.793,320.167,101.164,310.8,101.12z"/>
	</g>
</g>
<g>
	<g>
		<path d="M425.28,245.12h-6.56V230.4c0.177-9.365-7.272-17.1-16.637-17.277c-0.081-0.002-0.162-0.003-0.243-0.003H362.4
			c-9.367,0-16.96,7.593-16.96,16.96v15.04h-99.36c-9.213-0.003-16.743,7.35-16.96,16.56v93.68c0,9.367,7.593,16.96,16.96,16.96
			h179.2c9.367,0,16.96-7.593,16.96-16.96v-93.68C442.023,252.47,434.493,245.117,425.28,245.12z"/>
	</g>
</g>
<g>
</g>
<g>
</g>
<g>
</g>
<g>
</g>
<g>
</g>
<g>
</g>
<g>
</g>
<g>
</g>
<g>
</g>
<g>
</g>
<g>
</g>
<g>
</g>
<g>
</g>
<g>
</g>
<g>
</g>
</svg>
