<?xml version="1.0" encoding="iso-8859-1"?>
<!-- Generator: Adobe Illustrator 19.0.0, SVG Export Plug-In . SVG Version: 6.00 Build 0)  -->
<svg xmlns="http://www.w3.org/2000/svg" xmlns:xlink="http://www.w3.org/1999/xlink" version="1.1" id="Layer_1" x="0px" y="0px" viewBox="0 0 512 512" style="enable-background:new 0 0 512 512;" xml:space="preserve" width="512px" height="512px">
<g>
	<g>
		<path d="M364.206,237.526V79.175H0v353.65h512V237.526H364.206z M163.629,416.99H73.897V306.144h89.732V416.99z M52.784,290.309    v-21.113h131.959v21.113H52.784z M348.371,416.99H179.464V306.144h21.113v-52.784H36.948v52.784h21.113V416.99H15.835V137.237    h332.536V416.99z M348.371,121.402H15.835V95.01h332.536V121.402z M496.165,416.99H364.206V253.361h131.959V416.99z" fill="#FFFFFF"/>
	</g>
</g>
<g>
	<g>
		<path d="M385.32,274.474v100.289h89.732V274.474H385.32z M422.268,358.928h-21.113v-26.392h21.113V358.928z M422.268,316.701    h-21.113v-26.392h21.113V316.701z M459.216,358.928h-21.113v-26.392h21.113V358.928z M459.216,316.701h-21.113v-26.392h21.113    V316.701z" fill="#FFFFFF"/>
	</g>
</g>
<g>
	<g>
		<rect x="118.763" y="358.928" width="21.113" height="15.835" fill="#FFFFFF"/>
	</g>
</g>
<g>
	<g>
		<path d="M216.412,242.804v110.845h110.845V242.804H216.412z M263.918,337.814h-31.67v-31.67h31.67V337.814z M263.918,290.309    h-31.67v-31.67h31.67V290.309z M311.423,337.814h-31.67v-31.67h31.67V337.814z M311.423,290.309h-31.67v-31.67h31.67V290.309z" fill="#FFFFFF"/>
	</g>
</g>
<g>
	<g>
		<rect x="213.773" y="374.763" width="21.113" height="15.835" fill="#FFFFFF"/>
	</g>
</g>
<g>
	<g>
		<rect x="308.784" y="374.763" width="21.113" height="15.835" fill="#FFFFFF"/>
	</g>
</g>
<g>
	<g>
		<rect x="261.278" y="374.763" width="21.113" height="15.835" fill="#FFFFFF"/>
	</g>
</g>
<g>
	<g>
		<path d="M65.979,168.907c-10.186,0-18.474,8.288-18.474,18.474s8.288,18.474,18.474,18.474s18.474-8.288,18.474-18.474    S76.166,168.907,65.979,168.907z" fill="#FFFFFF"/>
	</g>
</g>
<g>
	<g>
		<path d="M298.227,168.907c-10.186,0-18.474,8.288-18.474,18.474s8.288,18.474,18.474,18.474s18.474-8.288,18.474-18.474    S308.413,168.907,298.227,168.907z" fill="#FFFFFF"/>
	</g>
</g>
<g>
	<g>
		<path d="M182.103,168.907c-10.186,0-18.474,8.288-18.474,18.474s8.288,18.474,18.474,18.474s18.474-8.288,18.474-18.474    S192.289,168.907,182.103,168.907z" fill="#FFFFFF"/>
	</g>
</g>
<g>
	<g>
		<rect x="113.485" y="179.464" width="21.113" height="15.835" fill="#FFFFFF"/>
	</g>
</g>
<g>
	<g>
		<rect x="229.608" y="179.464" width="21.113" height="15.835" fill="#FFFFFF"/>
	</g>
</g>
<g>
</g>
<g>
</g>
<g>
</g>
<g>
</g>
<g>
</g>
<g>
</g>
<g>
</g>
<g>
</g>
<g>
</g>
<g>
</g>
<g>
</g>
<g>
</g>
<g>
</g>
<g>
</g>
<g>
</g>
</svg>
