<?xml version="1.0" encoding="iso-8859-1"?>
<!-- Generator: Adobe Illustrator 18.0.0, SVG Export Plug-In . SVG Version: 6.00 Build 0)  -->
<!DOCTYPE svg PUBLIC "-//W3C//DTD SVG 1.1//EN" "http://www.w3.org/Graphics/SVG/1.1/DTD/svg11.dtd">
<svg version="1.1" id="Capa_1" xmlns="http://www.w3.org/2000/svg" xmlns:xlink="http://www.w3.org/1999/xlink" x="0px" y="0px"
	 viewBox="0 0 448.026 448.026" style="enable-background:new 0 0 448.026 448.026;" xml:space="preserve">
<g>
	<path d="M436.517,272.59l-63.536-37.402c-5.517-3.248-12.125-4.087-18.279-2.324l-35.776,10.253l-35.364-66.531l56.178-16.455
		c12.376-3.625,19.47-16.597,15.845-28.973c-3.626-12.376-16.595-19.47-28.973-15.845l-71.849,21.045
		c-10.657-5.589-23.8-5.994-35.229,0.082c-5.052,2.686-9.238,6.361-12.456,10.656c17.418,23.909,98.934,135.803,106.469,146.145
		l44.384-12.72l54.896,32.316c11.12,6.546,25.431,2.829,31.969-8.277C451.337,293.445,447.631,279.132,436.517,272.59z"/>
	<circle cx="214.776" cy="71.8" r="46.257"/>
	<path d="M334.034,346.061c-2.167,0-4.289,0.191-6.359,0.539L118.083,58.901C96.64,29.466,55.744,23.509,26.832,44.567
		C-2.277,65.774-8.706,106.709,12.5,135.819c4.229,5.804,12.359,7.079,18.162,2.853c5.803-4.227,7.08-12.359,2.853-18.162
		c-12.765-17.522-8.895-42.162,8.626-54.926c17.518-12.76,42.105-8.974,54.927,8.627l39.492,54.21v33.966v87.678
		c0,27.586,11.211,52.552,29.324,70.595l-18.441,26.577c-3.011-0.765-6.163-1.175-9.409-1.175
		c-21.072,0-38.216,17.144-38.216,38.215c0,21.072,17.144,38.216,38.216,38.216s38.216-17.144,38.216-38.216
		c0-8.752-2.964-16.82-7.932-23.27l17.374-25.039c14.813,8.729,32.077,13.743,50.514,13.743h36.822h24.745l7.163,9.833
		c-6.019,7.07-9.118,15.873-9.118,24.733c0,21.072,17.143,38.216,38.216,38.216c21.072,0,38.216-17.144,38.216-38.216
		C372.25,363.12,354.986,346.061,334.034,346.061z M138.034,395.492c-6.185,0-11.216-5.031-11.216-11.216
		c0-6.184,5.031-11.215,11.216-11.215s11.216,5.031,11.216,11.215C149.25,390.461,144.218,395.492,138.034,395.492z
		 M334.034,395.492c-6.178,0-11.216-5.034-11.216-11.216c0-6.184,5.031-11.215,11.216-11.215c6.277,0,11.216,5.142,11.216,11.215
		C345.25,390.461,340.218,395.492,334.034,395.492z"/>
</g>
<g>
</g>
<g>
</g>
<g>
</g>
<g>
</g>
<g>
</g>
<g>
</g>
<g>
</g>
<g>
</g>
<g>
</g>
<g>
</g>
<g>
</g>
<g>
</g>
<g>
</g>
<g>
</g>
<g>
</g>
</svg>
