<?xml version="1.0" encoding="iso-8859-1"?>
<!-- Generator: Adobe Illustrator 18.1.1, SVG Export Plug-In . SVG Version: 6.00 Build 0)  -->
<svg version="1.1" id="Capa_1" xmlns="http://www.w3.org/2000/svg" xmlns:xlink="http://www.w3.org/1999/xlink" x="0px" y="0px"
	 viewBox="0 0 22.774 22.774" style="enable-background:new 0 0 22.774 22.774;" xml:space="preserve">
<g>
	<g>
		<path style="fill:#030104;" d="M21.613,8.14c-0.16-1.29-0.348-2.282-0.567-2.983c-0.615-1.951-2.667-3.563-4.922-3.563
			c-0.745,0-2.978,0-2.978,0c-0.2-0.286-0.441-0.544-0.726-0.782c-0.268-0.214-0.59-0.404-0.976-0.566C11.06,0.08,10.588,0,10.026,0
			C9.462,0,9.04,0.051,8.756,0.154c-0.285,0.103-0.486,0.232-0.6,0.391c-0.11,0.156-0.174,0.342-0.181,0.552
			c-0.008,0.209-0.018,0.406-0.018,0.59v2.706c0,0.957-0.241,1.508-1.524,1.508H2.24c-0.258,0.186-0.473,0.396-0.659,0.63
			C1.419,6.755,1.265,7.027,1.126,7.343C0.991,7.658,0.923,8.037,0.923,8.476c0,0.288,0.019,0.685,0.06,1.188
			c0.04,0.508,0.119,1.055,0.24,1.648c0.116,0.593,0.281,1.199,0.489,1.816c0.208,0.618,0.48,1.197,0.813,1.731
			c0.333,0.536,0.741,0.996,1.226,1.374c0.485,0.377,1.05,0.606,1.695,0.688c1.143,0.162,2.067,0.068,2.804,0.068
			c2.542,0,2.636-2.245,2.653-3.303c0.004-0.295,0.008-0.604,0.028-0.919c0.266,0.461,0.578,0.867,0.924,1.226
			c0.282,0.297,0.623,0.569,1.034,0.82c0.408,0.25,0.867,0.376,1.377,0.376c1.032,0,1.838,0.228,2.398,0.689
			c0.561,0.459,0.846,0.97,0.846,1.535c0,0,0.04,1.608,0,2.145c-0.021,0.276-0.1,0.505-0.183,0.689
			c-0.079,0.169-0.213,0.32-0.396,0.462c-0.177,0.143-0.414,0.21-0.712,0.21h-2.321c-0.602,0-1.094-0.482-1.103-1.087
			c-0.004-0.199-0.006-0.371-0.006-0.444c0-0.432,0.09-0.721,0.269-0.869c0.18-0.146,0.399-0.222,0.651-0.222
			c0.312,0,0.878,0.009,0.878,0.009v-1.687c0,0-0.889,0-1.527,0.01c-0.557,0.009-1.086,0.242-1.467,0.647
			c-0.382,0.404-0.584,0.946-0.56,1.503c0.042,0.938,0.086,1.819,0.09,1.86c0.186,1.867,1.953,2.135,2.37,2.135h3.554
			c0.893-0.185,1.684-0.643,2.382-1.378c0.295-0.308,0.588-0.691,0.878-1.149c0.294-0.46,0.552-1.013,0.783-1.649
			c0.231-0.64,0.413-1.388,0.552-2.245c0.14-0.857,0.209-1.845,0.209-2.958C21.851,11.178,21.772,9.426,21.613,8.14z M14.555,10.246
			c0.242-0.624,0.846-1.069,1.557-1.069c0.711,0,1.314,0.445,1.558,1.069H14.555z"/>
		<path style="fill:#030104;" d="M6.907,3.887l0.012-3.402L2.828,4.893l3.109-0.031C6.472,4.858,6.905,4.423,6.907,3.887z"/>
	</g>
</g>
<g>
</g>
<g>
</g>
<g>
</g>
<g>
</g>
<g>
</g>
<g>
</g>
<g>
</g>
<g>
</g>
<g>
</g>
<g>
</g>
<g>
</g>
<g>
</g>
<g>
</g>
<g>
</g>
<g>
</g>
</svg>
