<?xml version="1.0" encoding="iso-8859-1"?>
<!-- Generator: Adobe Illustrator 19.0.0, SVG Export Plug-In . SVG Version: 6.00 Build 0)  -->
<svg version="1.1" id="Capa_1" xmlns="http://www.w3.org/2000/svg" xmlns:xlink="http://www.w3.org/1999/xlink" x="0px" y="0px"
	 viewBox="0 0 426.667 426.667" style="enable-background:new 0 0 426.667 426.667;" xml:space="preserve">
<g>
	<g>
		<g>
			<path d="M245.333,0v170.667H416C416,76.373,339.627,0,245.333,0z"/>
			<path d="M105.387,192L85.12,149.333H10.667V192h47.467c0,0,40.32,86.827,45.227,94.187C79.893,298.88,64,323.52,64,352
				c0,41.28,33.387,74.667,74.667,74.667c37.653,0,68.587-27.84,73.813-64h44.373c5.227,36.16,36.16,64,73.813,64
				c41.28,0,74.667-33.387,74.667-74.667c0-22.187-9.707-42.027-25.067-55.68C402.56,267.413,416,231.36,416,192H105.387z
				 M138.667,384c-17.707,0-32-14.293-32-32s14.293-32,32-32s32,14.293,32,32S156.373,384,138.667,384z M330.667,384
				c-17.707,0-32-14.293-32-32s14.293-32,32-32s32,14.293,32,32S348.373,384,330.667,384z"/>
		</g>
	</g>
</g>
<g>
</g>
<g>
</g>
<g>
</g>
<g>
</g>
<g>
</g>
<g>
</g>
<g>
</g>
<g>
</g>
<g>
</g>
<g>
</g>
<g>
</g>
<g>
</g>
<g>
</g>
<g>
</g>
<g>
</g>
</svg>
