<?xml version="1.0" encoding="iso-8859-1"?>
<!-- Generator: Adobe Illustrator 19.0.0, SVG Export Plug-In . SVG Version: 6.00 Build 0)  -->
<svg version="1.1" id="Capa_1" xmlns="http://www.w3.org/2000/svg" xmlns:xlink="http://www.w3.org/1999/xlink" x="0px" y="0px"
	 viewBox="0 0 512 512" style="enable-background:new 0 0 512 512;" xml:space="preserve">
<g>
	<g>
		<path d="M346,0h-30c-16.569,0-30,13.431-30,30v1c0,16.569,13.431,30,30,30h30c16.569,0,30,13.431,30,30c0,16.569-13.431,30-30,30
			H166c-16.569,0-30-13.431-30-30c0-16.568,13.431-30,30-30h30c16.568,0,30-13.431,30-30v-1c0-16.569-13.431-30-30-30h-30
			c-49.706,0-90,40.294-90,90v242c0,99.411,80.589,180,180,180s180-80.589,180-180V90C436,40.294,395.706,0,346,0z M305.497,309.213
			L256,358.711l-49.497-49.497c-11.716-11.716-11.716-30.711,0-42.426c11.716-11.716,30.711-11.716,42.426,0l7.071,7.071
			l7.071-7.071c11.716-11.716,30.711-11.716,42.426,0C317.213,278.503,317.213,297.497,305.497,309.213z"/>
	</g>
</g>
<g>
</g>
<g>
</g>
<g>
</g>
<g>
</g>
<g>
</g>
<g>
</g>
<g>
</g>
<g>
</g>
<g>
</g>
<g>
</g>
<g>
</g>
<g>
</g>
<g>
</g>
<g>
</g>
<g>
</g>
</svg>
